<svg xmlns="http://www.w3.org/2000/svg" viewBox="0 0 800 500" role="img" aria-label="(:>;0">
  <defs>
    <linearGradient id="sky" x1="0%" y1="0%" x2="100%" y2="100%">
      <stop offset="0%" stop-color="#dbeafe"/>
      <stop offset="100%" stop-color="#e0f2fe"/>
    </linearGradient>
    <linearGradient id="building" x1="0%" y1="0%" x2="0%" y2="100%">
      <stop offset="0%" stop-color="#3b82f6"/>
      <stop offset="100%" stop-color="#2563eb"/>
    </linearGradient>
  </defs>
  <rect width="800" height="500" fill="url(#sky)" rx="28"/>
  <ellipse cx="400" cy="420" rx="280" ry="30" fill="#93c5fd" opacity="0.35"/>
  <rect x="220" y="180" width="360" height="220" rx="12" fill="url(#building)"/>
  <polygon points="400,80 180,200 620,200" fill="#1d4ed8"/>
  <rect x="350" y="300" width="100" height="100" rx="8" fill="#1e3a8a"/>
  <circle cx="400" cy="350" r="8" fill="#fbbf24"/>
  <rect x="260" y="230" width="70" height="55" rx="6" fill="#bfdbfe"/>
  <rect x="470" y="230" width="70" height="55" rx="6" fill="#bfdbfe"/>
  <rect x="260" y="310" width="70" height="55" rx="6" fill="#bfdbfe"/>
  <rect x="470" y="310" width="70" height="55" rx="6" fill="#bfdbfe"/>
  <rect x="120" y="320" width="60" height="80" rx="30" fill="#22c55e"/>
  <polygon points="150,260 130,320 170,320" fill="#16a34a"/>
  <rect x="620" y="330" width="50" height="70" rx="25" fill="#22c55e"/>
  <polygon points="645,280 625,330 665,330" fill="#16a34a"/>
</svg>
